<?xml version="1.0" encoding="UTF-8"?>
<svg version="1.2" baseProfile="tiny-ps" xmlns="http://www.w3.org/2000/svg"
 width="512" height="512" viewBox="0 0 512 512">
<title>Infatium</title>
<rect width="512" height="512" fill="#0a0a0a"/>
<g transform="translate(0,512) scale(0.1,-0.1)" fill="#ffffff" stroke="none">
<path d="M2985 4246 c-211 -58 -336 -161 -363 -300 -25 -123 -51 -139 -242
-147 l-145 -5 137 -2 c75 -1 149 3 165 8 15 6 43 27 60 48 l33 37 0 -37 c0
-20 4 -48 9 -61 9 -23 4 -31 -43 -75 -52 -49 -66 -56 -176 -81 -44 -10 -44
-10 15 -5 76 7 131 31 174 78 34 35 61 47 61 26 0 -5 7 -10 15 -10 24 0 18
-37 -17 -102 -40 -75 -74 -99 -152 -109 l-61 -8 65 3 c79 2 115 25 155 97 30
55 43 67 51 45 3 -8 15 -18 26 -22 11 -3 28 -25 38 -49 10 -24 27 -48 37 -53
24 -14 13 -25 -71 -71 -64 -36 -126 -84 -126 -97 0 -20 -82 -102 -139 -139
-77 -50 -141 -79 -141 -64 0 6 -12 1 -27 -10 -16 -12 -62 -45 -103 -73 -151
-103 -227 -165 -341 -278 -93 -93 -128 -136 -182 -225 -167 -279 -288 -423
-414 -490 -40 -21 -71 -41 -68 -43 11 -11 139 72 202 131 72 68 216 266 304
417 49 85 232 275 364 379 79 62 230 153 319 190 77 34 157 95 229 175 38 42
83 83 100 92 32 16 31 15 -5 -16 -25 -20 -52 -62 -81 -123 -25 -51 -52 -99
-61 -106 -14 -12 -463 -231 -473 -231 -2 0 -3 -4 -3 -9 0 -5 97 37 215 95 119
57 219 104 223 104 4 0 18 9 32 20 23 18 50 13 50 -10 0 -4 -46 -35 -103 -68
-116 -68 -125 -76 -132 -123 l-5 -34 11 35 c17 56 29 59 29 9 0 -33 -6 -51
-19 -63 -18 -17 -19 -17 -24 1 -4 15 -5 14 -6 -4 0 -12 -5 -25 -11 -28 -13 -8
-13 51 0 76 15 27 -5 25 -24 -3 -9 -12 -16 -41 -16 -64 0 -25 -6 -47 -15 -54
-8 -7 -15 -18 -15 -26 0 -7 -35 -39 -77 -71 -42 -32 -96 -75 -120 -97 l-43
-39 0 90 0 89 48 36 c26 19 61 43 77 51 17 9 27 16 23 17 -17 1 -64 -23 -98
-50 -21 -17 -42 -30 -47 -30 -6 0 -15 15 -21 33 -8 26 -10 28 -11 9 -1 -13 3
-31 8 -41 8 -14 0 -27 -41 -67 -65 -64 -270 -291 -292 -326 -11 -17 -13 -28
-7 -33 6 -3 11 1 11 9 0 9 6 13 14 10 7 -3 16 2 20 12 5 14 4 15 -9 4 -8 -7
-15 -9 -15 -6 0 9 223 257 284 316 l46 44 0 -88 c0 -88 0 -88 -39 -135 -21
-25 -56 -75 -78 -111 -22 -36 -72 -112 -110 -170 -190 -283 -267 -563 -218
-793 24 -114 57 -173 154 -272 49 -49 99 -110 111 -135 24 -47 32 -124 17
-170 -8 -24 -7 -24 7 -6 10 12 16 40 16 71 0 77 -39 145 -136 240 -126 124
-168 225 -168 410 0 218 75 424 244 675 42 63 91 138 109 165 17 28 44 66 61
85 l29 35 1 -66 c0 -103 -16 -169 -50 -204 -31 -32 -60 -92 -60 -124 0 -11
-11 -28 -23 -38 -38 -29 -49 -61 -50 -139 -1 -56 -5 -74 -15 -74 -12 0 -12 3
-2 15 7 9 11 17 9 20 -3 2 -29 -24 -58 -58 l-53 -61 5 -56 c4 -30 13 -75 21
-100 8 -25 17 -65 19 -90 2 -25 7 -52 10 -60 3 -8 8 -27 11 -42 4 -15 27 -51
52 -79 37 -41 44 -56 39 -77 -5 -26 29 -101 41 -89 3 3 2 42 -2 86 -6 69 -11
87 -36 119 -26 32 -29 42 -23 77 3 22 10 44 16 49 13 14 11 73 -6 136 -18 69
-19 98 -1 132 12 23 12 32 0 65 -15 44 -19 153 -4 153 6 0 10 -13 10 -29 0
-16 3 -37 7 -47 4 -12 3 -15 -5 -10 -15 9 -15 -9 -1 -35 5 -11 14 -17 20 -14
13 9 11 -9 -3 -23 -25 -25 -2 -19 30 8 32 27 33 30 41 127 7 95 10 105 56 187
27 47 52 86 57 86 11 0 10 -7 -12 -79 -11 -35 -18 -66 -16 -68 2 -2 16 33 31
79 15 46 32 89 38 96 5 6 6 12 2 12 -17 0 111 132 156 160 27 18 49 34 49 37
0 14 -93 -50 -136 -94 -28 -29 -53 -53 -55 -53 -12 0 5 100 22 131 10 21 17
43 14 51 -7 17 54 77 84 83 52 10 64 19 84 63 11 26 23 72 27 102 7 55 7 55 9
-23 0 -43 -4 -87 -9 -97 -9 -17 -85 -58 -116 -64 -12 -2 -74 -52 -74 -60 0 -2
23 11 51 30 28 19 55 34 61 34 20 0 158 62 153 70 -2 4 4 29 15 56 11 27 27
75 35 108 12 43 28 71 62 107 25 27 51 49 58 49 19 0 26 -28 20 -79 -5 -39 -4
-42 6 -21 6 14 9 46 6 72 -3 32 0 49 9 52 19 7 22 -14 9 -76 -10 -53 -6 -74
10 -48 3 6 11 10 17 10 6 0 -1 -9 -15 -20 -14 -11 -46 -47 -70 -80 -25 -32
-48 -56 -52 -52 -5 4 -5 2 -2 -5 4 -6 -9 -30 -28 -53 -19 -23 -35 -46 -35 -50
0 -5 -20 -32 -46 -62 -35 -41 -44 -60 -42 -83 1 -17 -1 -36 -5 -43 -6 -8 -3
-10 8 -6 11 5 6 -16 -21 -77 -20 -46 -38 -89 -41 -96 -9 -23 -79 -61 -125 -67
-56 -8 -117 -50 -154 -106 -35 -52 -36 -131 -4 -259 20 -82 22 -103 13 -165
-5 -39 -13 -79 -17 -88 -5 -10 -4 -18 2 -18 5 0 30 47 56 104 53 119 59 176
26 241 -11 22 -20 49 -20 60 0 28 78 103 118 114 36 11 37 8 18 -47 -24 -68
-55 -241 -71 -397 -8 -82 -27 -220 -41 -305 -14 -85 -29 -197 -34 -250 -4 -52
-11 -104 -15 -115 -4 -13 -4 -16 2 -8 6 8 13 -12 21 -60 14 -81 83 -229 134
-287 28 -32 29 -33 12 -5 -62 102 -103 182 -120 232 -27 81 -25 286 4 442 12
62 28 186 37 275 20 193 58 416 83 482 15 41 22 49 51 55 43 9 88 54 105 105
10 28 25 45 52 61 26 15 42 33 51 58 7 20 26 52 43 71 16 19 30 45 30 57 0 36
20 53 91 76 74 24 115 60 129 112 8 30 17 37 69 57 70 27 106 65 122 128 9 34
23 55 55 81 49 41 74 93 67 139 -3 20 1 42 13 59 16 24 19 25 29 11 7 -9 23
-16 37 -16 14 0 32 -8 42 -19 16 -17 15 -20 -19 -45 -46 -35 -63 -70 -79 -163
-11 -63 -11 -73 1 -57 7 10 13 33 13 52 0 58 22 111 57 142 34 30 67 38 78 20
3 -5 16 -10 28 -10 12 0 42 -14 66 -30 24 -17 39 -30 33 -30 -23 0 -42 -59
-42 -130 0 -82 -17 -131 -62 -177 -18 -18 -27 -33 -22 -33 18 0 52 43 74 92
11 26 23 80 26 125 8 96 24 118 87 122 l44 2 -4 -103 c-2 -57 -6 -117 -8 -133
-7 -45 -58 -100 -136 -146 -83 -50 -92 -63 -11 -18 66 37 127 91 148 132 9 17
18 76 23 143 4 62 11 117 15 121 4 5 35 19 69 33 49 20 70 36 110 85 61 76
101 158 128 260 37 142 11 352 -60 493 -91 180 -292 344 -473 387 -96 23 -275
19 -373 -9z"/>
</g>
</svg>
